<!-- Generated by IcoMoon.io -->
<svg version="1.1" xmlns="http://www.w3.org/2000/svg" width="38" height="32" viewBox="0 0 38 32">
<title>twitter</title>
<path d="M37.647 4.51c-1.412 0.614-2.906 1.018-4.435 1.2 1.607-0.941 2.815-2.436 3.398-4.204-1.519 0.888-3.179 1.512-4.907 1.843-0.728-0.763-1.603-1.369-2.573-1.783s-2.013-0.626-3.067-0.624c-4.268 0-7.722 3.404-7.722 7.6-0.003 0.584 0.064 1.166 0.199 1.733-3.061-0.143-6.058-0.924-8.799-2.292s-5.167-3.293-7.122-5.653c-0.686 1.156-1.049 2.475-1.050 3.82 0 2.635 1.375 4.965 3.451 6.329-1.23-0.029-2.435-0.355-3.512-0.949v0.094c0 3.686 2.667 6.753 6.196 7.451-0.664 0.177-1.348 0.267-2.034 0.267-0.487 0.001-0.974-0.047-1.452-0.141 0.981 3.019 3.837 5.216 7.22 5.278-2.749 2.118-6.123 3.263-9.594 3.255-0.616-0.001-1.231-0.038-1.843-0.11 3.53 2.254 7.634 3.447 11.823 3.435 14.224 0 21.995-11.584 21.995-21.631 0-0.329-0.008-0.659-0.024-0.98 1.508-1.073 2.813-2.406 3.853-3.937z"></path>
</svg>
