<!-- Generated by IcoMoon.io -->
<svg version="1.1" xmlns="http://www.w3.org/2000/svg" width="43" height="32" viewBox="0 0 43 32">
<title>youtube</title>
<path d="M42.393 7.066c0-3.75-2.759-6.766-6.167-6.766-4.617-0.216-9.326-0.299-14.138-0.299h-1.5c-4.801 0-9.518 0.083-14.135 0.3-3.4 0-6.159 3.033-6.159 6.783-0.208 2.966-0.297 5.932-0.292 8.899-0.008 2.967 0.086 5.936 0.283 8.908 0 3.75 2.759 6.791 6.159 6.791 4.851 0.225 9.826 0.325 14.885 0.317 5.067 0.017 10.029-0.089 14.885-0.317 3.409 0 6.167-3.042 6.167-6.791 0.2-2.975 0.292-5.942 0.284-8.916 0.019-2.967-0.072-5.936-0.272-8.908zM17.253 24.157v-16.375l12.085 8.183-12.085 8.191z"></path>
</svg>
