<!-- Generated by IcoMoon.io -->
<svg version="1.1" xmlns="http://www.w3.org/2000/svg" width="32" height="32" viewBox="0 0 32 32">
<title>edit</title>
<path fill="none" stroke-linejoin="round" stroke-linecap="round" stroke-miterlimit="4" stroke-width="2.1895" stroke="#000" d="M3.791 24.546c0.077-0.696 0.116-1.045 0.221-1.37 0.093-0.289 0.226-0.564 0.393-0.817 0.188-0.285 0.436-0.533 0.932-1.029l17.33-17.33c1.473-1.473 3.861-1.473 5.333 0v0c1.473 1.473 1.473 3.861 0 5.333l-17.33 17.33c-0.495 0.495-0.743 0.743-1.029 0.932-0.253 0.167-0.528 0.299-0.817 0.393-0.325 0.105-0.674 0.144-1.37 0.221l-4.121 0.458 0.458-4.121z"></path>
</svg>
