<!-- Generated by IcoMoon.io -->
<svg version="1.1" xmlns="http://www.w3.org/2000/svg" width="30" height="29" viewBox="0 0 30 29">
<title>green_arrow</title>
<path fill="#8baa36" d="M19.77 11.472c-0 0-0 0.001-0.001 0.001l-3.577 10.301c-0.041 0.118-0.050 0.245-0.026 0.368s0.080 0.237 0.163 0.33l7.013 7.932c0.639 0.741 1.869 0.311 1.902-0.667l0.968-28.645c0.007-0.198-0.042-0.394-0.142-0.566s-0.246-0.312-0.422-0.406-0.375-0.137-0.575-0.124c-0.2 0.012-0.393 0.080-0.557 0.195l-23.719 16.561c-0.809 0.565-0.496 1.815 0.482 1.933l10.575 1.408c0.125 0.017 0.253 0.001 0.37-0.047s0.22-0.125 0.298-0.224l6.751-8.616c0.042-0.053 0.101-0.089 0.168-0.103s0.135-0.004 0.195 0.028c0.059 0.032 0.106 0.083 0.13 0.145s0.027 0.131 0.005 0.194c-0 0-0 0.001-0.001 0.001z"></path>
</svg>
